<?xml version="1.0" standalone="no"?>
<!DOCTYPE svg PUBLIC "-//W3C//DTD SVG 20010904//EN"
 "http://www.w3.org/TR/2001/REC-SVG-20010904/DTD/svg10.dtd">
<svg version="1.0" xmlns="http://www.w3.org/2000/svg"
 width="512.000000pt" height="512.000000pt" viewBox="0 0 512.000000 512.000000"
 preserveAspectRatio="xMidYMid meet">

<g transform="translate(0.000000,512.000000) scale(0.100000,-0.100000)"
fill="#000000" stroke="none">
<path d="M2100 3740 l0 -1119 -343 -3 -344 -3 -35 -24 c-43 -30 -78 -79 -78
-112 0 -73 14 -91 595 -756 589 -674 617 -703 685 -703 68 0 96 29 684 702
322 369 579 671 585 689 23 67 15 102 -37 158 l-48 51 -352 0 -352 0 0 1120 0
1120 -480 0 -480 0 0 -1120z"/>
<path d="M790 320 l0 -320 1775 0 1775 0 0 320 0 320 -1775 0 -1775 0 0 -320z"/>
</g>
</svg>
