<?xml version="1.0" standalone="no"?>
<!DOCTYPE svg PUBLIC "-//W3C//DTD SVG 20010904//EN"
 "http://www.w3.org/TR/2001/REC-SVG-20010904/DTD/svg10.dtd">
<svg version="1.0" xmlns="http://www.w3.org/2000/svg"
 width="512.000000pt" height="512.000000pt" viewBox="0 0 512.000000 512.000000"
 preserveAspectRatio="xMidYMid meet">

<g transform="translate(0.000000,512.000000) scale(0.100000,-0.100000)"
fill="#000000" stroke="none">
<path d="M2100 3740 l0 -1120 -317 0 c-199 0 -333 -4 -357 -11 -35 -10 -133
-89 -110 -89 5 0 3 -4 -3 -8 -16 -10 -3 -101 19 -134 38 -57 1157 -1325 1180
-1337 36 -19 97 -17 136 3 19 10 258 275 594 659 309 353 565 644 569 647 5 3
17 26 28 50 23 53 25 119 5 127 -8 3 -14 10 -14 16 0 5 -16 25 -35 43 l-34 34
-351 0 -350 0 0 1120 0 1120 -480 0 -480 0 0 -1120z"/>
<path d="M790 320 l0 -320 1775 0 1775 0 0 320 0 320 -1775 0 -1775 0 0 -320z"/>
</g>
</svg>
